<mxfile host="app.diagrams.net" agent="Mozilla/5.0 (Windows NT 10.0; Win64; x64) AppleWebKit/537.36 (KHTML, like Gecko) Chrome/140.0.0.0 Safari/537.36" version="28.2.3">
  <diagram name="Página-1" id="hTgRlk1-3OSY0IMOiHUP">
    <mxGraphModel dx="2037" dy="1061" grid="1" gridSize="10" guides="1" tooltips="1" connect="1" arrows="1" fold="1" page="1" pageScale="1" pageWidth="827" pageHeight="1169" background="none" math="0" shadow="0">
      <root>
        <mxCell id="0" />
        <mxCell id="1" parent="0" />
        <mxCell id="aoqUj16fe3TJWBXTC9W_-58" value="" style="rounded=0;whiteSpace=wrap;html=1;" vertex="1" parent="1">
          <mxGeometry x="40" y="30" width="750" height="1070" as="geometry" />
        </mxCell>
        <mxCell id="aoqUj16fe3TJWBXTC9W_-1" value="&lt;div&gt;&lt;/div&gt;" style="shape=folder;fontStyle=1;spacingTop=10;tabWidth=30;tabHeight=10;tabPosition=left;html=1;whiteSpace=wrap;align=center;" vertex="1" parent="1">
          <mxGeometry x="60" y="40" width="700" height="150" as="geometry" />
        </mxCell>
        <mxCell id="aoqUj16fe3TJWBXTC9W_-6" value="Apresentação&lt;div&gt;&lt;br&gt;&lt;/div&gt;" style="text;align=center;fontStyle=1;verticalAlign=middle;spacingLeft=3;spacingRight=3;strokeColor=none;rotatable=0;points=[[0,0.5],[1,0.5]];portConstraint=eastwest;html=1;" vertex="1" parent="1">
          <mxGeometry x="350" y="60" width="80" height="26" as="geometry" />
        </mxCell>
        <mxCell id="aoqUj16fe3TJWBXTC9W_-7" value="&lt;div&gt;&lt;/div&gt;" style="shape=folder;fontStyle=1;spacingTop=10;tabWidth=30;tabHeight=10;tabPosition=left;html=1;whiteSpace=wrap;align=center;" vertex="1" parent="1">
          <mxGeometry x="60" y="290" width="700" height="200" as="geometry" />
        </mxCell>
        <mxCell id="aoqUj16fe3TJWBXTC9W_-8" value="controladorEvento" style="shape=folder;fontStyle=1;spacingTop=10;tabWidth=40;tabHeight=14;tabPosition=left;html=1;whiteSpace=wrap;" vertex="1" parent="1">
          <mxGeometry x="100" y="360" width="120" height="50" as="geometry" />
        </mxCell>
        <mxCell id="aoqUj16fe3TJWBXTC9W_-9" value="&lt;div&gt;Aplicação&lt;/div&gt;" style="text;align=center;fontStyle=1;verticalAlign=middle;spacingLeft=3;spacingRight=3;strokeColor=none;rotatable=0;points=[[0,0.5],[1,0.5]];portConstraint=eastwest;html=1;" vertex="1" parent="1">
          <mxGeometry x="350" y="310" width="80" height="26" as="geometry" />
        </mxCell>
        <mxCell id="aoqUj16fe3TJWBXTC9W_-10" value="&lt;div&gt;&lt;/div&gt;" style="shape=folder;fontStyle=1;spacingTop=10;tabWidth=30;tabHeight=10;tabPosition=left;html=1;whiteSpace=wrap;align=center;" vertex="1" parent="1">
          <mxGeometry x="60" y="575" width="700" height="200" as="geometry" />
        </mxCell>
        <mxCell id="aoqUj16fe3TJWBXTC9W_-11" value="Evento" style="shape=folder;fontStyle=1;spacingTop=10;tabWidth=40;tabHeight=14;tabPosition=left;html=1;whiteSpace=wrap;" vertex="1" parent="1">
          <mxGeometry x="100" y="650" width="70" height="50" as="geometry" />
        </mxCell>
        <mxCell id="aoqUj16fe3TJWBXTC9W_-12" value="&lt;div&gt;Negócio&lt;/div&gt;" style="text;align=center;fontStyle=1;verticalAlign=middle;spacingLeft=3;spacingRight=3;strokeColor=none;rotatable=0;points=[[0,0.5],[1,0.5]];portConstraint=eastwest;html=1;" vertex="1" parent="1">
          <mxGeometry x="350" y="600" width="80" height="26" as="geometry" />
        </mxCell>
        <mxCell id="aoqUj16fe3TJWBXTC9W_-13" value="&lt;div&gt;&lt;/div&gt;" style="shape=folder;fontStyle=1;spacingTop=10;tabWidth=30;tabHeight=10;tabPosition=left;html=1;whiteSpace=wrap;align=center;" vertex="1" parent="1">
          <mxGeometry x="60" y="890" width="700" height="200" as="geometry" />
        </mxCell>
        <mxCell id="aoqUj16fe3TJWBXTC9W_-14" value="User" style="shape=folder;fontStyle=1;spacingTop=10;tabWidth=40;tabHeight=14;tabPosition=left;html=1;whiteSpace=wrap;" vertex="1" parent="1">
          <mxGeometry x="600" y="965" width="70" height="50" as="geometry" />
        </mxCell>
        <mxCell id="aoqUj16fe3TJWBXTC9W_-15" value="&lt;div&gt;Persistência&lt;/div&gt;" style="text;align=center;fontStyle=1;verticalAlign=middle;spacingLeft=3;spacingRight=3;strokeColor=none;rotatable=0;points=[[0,0.5],[1,0.5]];portConstraint=eastwest;html=1;" vertex="1" parent="1">
          <mxGeometry x="350" y="910" width="80" height="26" as="geometry" />
        </mxCell>
        <mxCell id="aoqUj16fe3TJWBXTC9W_-16" value="UiEvento" style="shape=folder;fontStyle=1;spacingTop=10;tabWidth=40;tabHeight=14;tabPosition=left;html=1;whiteSpace=wrap;" vertex="1" parent="1">
          <mxGeometry x="90" y="100" width="70" height="50" as="geometry" />
        </mxCell>
        <mxCell id="aoqUj16fe3TJWBXTC9W_-17" value="UiWallet" style="shape=folder;fontStyle=1;spacingTop=10;tabWidth=40;tabHeight=14;tabPosition=left;html=1;whiteSpace=wrap;" vertex="1" parent="1">
          <mxGeometry x="400" y="100" width="70" height="50" as="geometry" />
        </mxCell>
        <mxCell id="aoqUj16fe3TJWBXTC9W_-18" value="UiEdiçãoEvento" style="shape=folder;fontStyle=1;spacingTop=10;tabWidth=40;tabHeight=14;tabPosition=left;html=1;whiteSpace=wrap;" vertex="1" parent="1">
          <mxGeometry x="170" y="100" width="100" height="50" as="geometry" />
        </mxCell>
        <mxCell id="aoqUj16fe3TJWBXTC9W_-19" value="UiCriaçãoEvento" style="shape=folder;fontStyle=1;spacingTop=10;tabWidth=40;tabHeight=14;tabPosition=left;html=1;whiteSpace=wrap;" vertex="1" parent="1">
          <mxGeometry x="280" y="100" width="105" height="50" as="geometry" />
        </mxCell>
        <mxCell id="aoqUj16fe3TJWBXTC9W_-20" value="UiPerfil" style="shape=folder;fontStyle=1;spacingTop=10;tabWidth=40;tabHeight=14;tabPosition=left;html=1;whiteSpace=wrap;" vertex="1" parent="1">
          <mxGeometry x="665" y="100" width="70" height="50" as="geometry" />
        </mxCell>
        <mxCell id="aoqUj16fe3TJWBXTC9W_-21" value="UiLogin" style="shape=folder;fontStyle=1;spacingTop=10;tabWidth=40;tabHeight=14;tabPosition=left;html=1;whiteSpace=wrap;" vertex="1" parent="1">
          <mxGeometry x="485" y="100" width="70" height="50" as="geometry" />
        </mxCell>
        <mxCell id="aoqUj16fe3TJWBXTC9W_-25" value="UiCriarConta" style="shape=folder;fontStyle=1;spacingTop=10;tabWidth=40;tabHeight=14;tabPosition=left;html=1;whiteSpace=wrap;" vertex="1" parent="1">
          <mxGeometry x="565" y="100" width="90" height="50" as="geometry" />
        </mxCell>
        <mxCell id="aoqUj16fe3TJWBXTC9W_-26" style="edgeStyle=orthogonalEdgeStyle;rounded=0;orthogonalLoop=1;jettySize=auto;html=1;exitX=0.5;exitY=1;exitDx=0;exitDy=0;exitPerimeter=0;endArrow=block;endFill=0;dashed=1;entryX=0.489;entryY=0.337;entryDx=0;entryDy=0;entryPerimeter=0;" edge="1" parent="1" source="aoqUj16fe3TJWBXTC9W_-16" target="aoqUj16fe3TJWBXTC9W_-8">
          <mxGeometry relative="1" as="geometry">
            <mxPoint x="158" y="370" as="targetPoint" />
          </mxGeometry>
        </mxCell>
        <mxCell id="aoqUj16fe3TJWBXTC9W_-28" style="edgeStyle=orthogonalEdgeStyle;rounded=0;orthogonalLoop=1;jettySize=auto;html=1;exitX=0.5;exitY=1;exitDx=0;exitDy=0;exitPerimeter=0;entryX=0;entryY=0;entryDx=80;entryDy=14;entryPerimeter=0;dashed=1;endArrow=block;endFill=0;" edge="1" parent="1" source="aoqUj16fe3TJWBXTC9W_-18" target="aoqUj16fe3TJWBXTC9W_-8">
          <mxGeometry relative="1" as="geometry">
            <Array as="points">
              <mxPoint x="180" y="150" />
            </Array>
          </mxGeometry>
        </mxCell>
        <mxCell id="aoqUj16fe3TJWBXTC9W_-29" style="edgeStyle=orthogonalEdgeStyle;rounded=0;orthogonalLoop=1;jettySize=auto;html=1;exitX=0;exitY=0;exitDx=0;exitDy=50;exitPerimeter=0;entryX=0.906;entryY=0.303;entryDx=0;entryDy=0;entryPerimeter=0;endArrow=block;endFill=0;dashed=1;" edge="1" parent="1" source="aoqUj16fe3TJWBXTC9W_-19" target="aoqUj16fe3TJWBXTC9W_-8">
          <mxGeometry relative="1" as="geometry" />
        </mxCell>
        <mxCell id="aoqUj16fe3TJWBXTC9W_-31" value="controladorPerfil" style="shape=folder;fontStyle=1;spacingTop=10;tabWidth=30;tabHeight=10;tabPosition=left;html=1;whiteSpace=wrap;" vertex="1" parent="1">
          <mxGeometry x="530" y="365" width="105" height="50" as="geometry" />
        </mxCell>
        <mxCell id="aoqUj16fe3TJWBXTC9W_-32" style="edgeStyle=orthogonalEdgeStyle;rounded=0;orthogonalLoop=1;jettySize=auto;html=1;exitX=0.75;exitY=1;exitDx=0;exitDy=0;exitPerimeter=0;endArrow=block;endFill=0;dashed=1;entryX=0.94;entryY=0.137;entryDx=0;entryDy=0;entryPerimeter=0;" edge="1" parent="1" target="aoqUj16fe3TJWBXTC9W_-31">
          <mxGeometry relative="1" as="geometry">
            <mxPoint x="690.48" y="150" as="sourcePoint" />
            <mxPoint x="600" y="375.1500000000001" as="targetPoint" />
            <Array as="points">
              <mxPoint x="668" y="150" />
              <mxPoint x="668" y="340" />
              <mxPoint x="629" y="340" />
            </Array>
          </mxGeometry>
        </mxCell>
        <mxCell id="aoqUj16fe3TJWBXTC9W_-33" style="edgeStyle=orthogonalEdgeStyle;rounded=0;orthogonalLoop=1;jettySize=auto;html=1;exitX=0.75;exitY=1;exitDx=0;exitDy=0;exitPerimeter=0;entryX=0.829;entryY=0.187;entryDx=0;entryDy=0;entryPerimeter=0;endArrow=block;endFill=0;dashed=1;" edge="1" parent="1" source="aoqUj16fe3TJWBXTC9W_-25" target="aoqUj16fe3TJWBXTC9W_-31">
          <mxGeometry relative="1" as="geometry">
            <mxPoint x="580" y="250" as="sourcePoint" />
            <mxPoint x="638" y="478" as="targetPoint" />
          </mxGeometry>
        </mxCell>
        <mxCell id="aoqUj16fe3TJWBXTC9W_-34" style="edgeStyle=orthogonalEdgeStyle;rounded=0;orthogonalLoop=1;jettySize=auto;html=1;exitX=0.75;exitY=1;exitDx=0;exitDy=0;exitPerimeter=0;entryX=0;entryY=0;entryDx=67.5;entryDy=10;entryPerimeter=0;endArrow=block;endFill=0;dashed=1;" edge="1" parent="1" source="aoqUj16fe3TJWBXTC9W_-21" target="aoqUj16fe3TJWBXTC9W_-31">
          <mxGeometry relative="1" as="geometry">
            <mxPoint x="540" y="240" as="sourcePoint" />
            <mxPoint x="598" y="468" as="targetPoint" />
            <Array as="points">
              <mxPoint x="538" y="270" />
              <mxPoint x="598" y="270" />
              <mxPoint x="598" y="340" />
            </Array>
          </mxGeometry>
        </mxCell>
        <mxCell id="aoqUj16fe3TJWBXTC9W_-36" value="MyWallet" style="shape=folder;fontStyle=1;spacingTop=10;tabWidth=40;tabHeight=14;tabPosition=left;html=1;whiteSpace=wrap;" vertex="1" parent="1">
          <mxGeometry x="250" y="965" width="70" height="50" as="geometry" />
        </mxCell>
        <mxCell id="aoqUj16fe3TJWBXTC9W_-37" value="Event" style="shape=folder;fontStyle=1;spacingTop=10;tabWidth=40;tabHeight=14;tabPosition=left;html=1;whiteSpace=wrap;" vertex="1" parent="1">
          <mxGeometry x="120" y="960" width="70" height="50" as="geometry" />
        </mxCell>
        <mxCell id="aoqUj16fe3TJWBXTC9W_-38" value="WalletEvent" style="shape=folder;fontStyle=1;spacingTop=10;tabWidth=40;tabHeight=14;tabPosition=left;html=1;whiteSpace=wrap;" vertex="1" parent="1">
          <mxGeometry x="405" y="965" width="80" height="50" as="geometry" />
        </mxCell>
        <mxCell id="aoqUj16fe3TJWBXTC9W_-42" value="Wallet" style="shape=folder;fontStyle=1;spacingTop=10;tabWidth=40;tabHeight=14;tabPosition=left;html=1;whiteSpace=wrap;" vertex="1" parent="1">
          <mxGeometry x="360" y="650" width="70" height="50" as="geometry" />
        </mxCell>
        <mxCell id="aoqUj16fe3TJWBXTC9W_-43" value="User" style="shape=folder;fontStyle=1;spacingTop=10;tabWidth=40;tabHeight=14;tabPosition=left;html=1;whiteSpace=wrap;" vertex="1" parent="1">
          <mxGeometry x="595" y="650" width="70" height="50" as="geometry" />
        </mxCell>
        <mxCell id="aoqUj16fe3TJWBXTC9W_-44" style="edgeStyle=orthogonalEdgeStyle;rounded=0;orthogonalLoop=1;jettySize=auto;html=1;exitX=0.5;exitY=1;exitDx=0;exitDy=0;exitPerimeter=0;entryX=0;entryY=0;entryDx=55;entryDy=14;entryPerimeter=0;endArrow=block;endFill=0;dashed=1;" edge="1" parent="1" source="aoqUj16fe3TJWBXTC9W_-42" target="aoqUj16fe3TJWBXTC9W_-36">
          <mxGeometry relative="1" as="geometry">
            <mxPoint x="410" y="840" as="sourcePoint" />
            <mxPoint x="468" y="1068" as="targetPoint" />
          </mxGeometry>
        </mxCell>
        <mxCell id="aoqUj16fe3TJWBXTC9W_-45" style="edgeStyle=orthogonalEdgeStyle;rounded=0;orthogonalLoop=1;jettySize=auto;html=1;exitX=0.75;exitY=1;exitDx=0;exitDy=0;exitPerimeter=0;entryX=0;entryY=0;entryDx=60;entryDy=14;entryPerimeter=0;endArrow=block;endFill=0;dashed=1;" edge="1" parent="1" source="aoqUj16fe3TJWBXTC9W_-42" target="aoqUj16fe3TJWBXTC9W_-38">
          <mxGeometry relative="1" as="geometry">
            <mxPoint x="530" y="860" as="sourcePoint" />
            <mxPoint x="588" y="1088" as="targetPoint" />
            <Array as="points">
              <mxPoint x="410" y="700" />
              <mxPoint x="410" y="830" />
              <mxPoint x="465" y="830" />
            </Array>
          </mxGeometry>
        </mxCell>
        <mxCell id="aoqUj16fe3TJWBXTC9W_-46" style="edgeStyle=orthogonalEdgeStyle;rounded=0;orthogonalLoop=1;jettySize=auto;html=1;exitX=0.5;exitY=1;exitDx=0;exitDy=0;exitPerimeter=0;entryX=0;entryY=0;entryDx=55;entryDy=14;entryPerimeter=0;endArrow=block;endFill=0;dashed=1;" edge="1" parent="1" source="aoqUj16fe3TJWBXTC9W_-43" target="aoqUj16fe3TJWBXTC9W_-14">
          <mxGeometry relative="1" as="geometry">
            <mxPoint x="610" y="810" as="sourcePoint" />
            <mxPoint x="668" y="1038" as="targetPoint" />
          </mxGeometry>
        </mxCell>
        <mxCell id="aoqUj16fe3TJWBXTC9W_-47" style="edgeStyle=orthogonalEdgeStyle;rounded=0;orthogonalLoop=1;jettySize=auto;html=1;exitX=0.75;exitY=1;exitDx=0;exitDy=0;exitPerimeter=0;entryX=0;entryY=0;entryDx=55;entryDy=14;entryPerimeter=0;endArrow=block;endFill=0;dashed=1;" edge="1" parent="1" source="aoqUj16fe3TJWBXTC9W_-11" target="aoqUj16fe3TJWBXTC9W_-37">
          <mxGeometry relative="1" as="geometry">
            <mxPoint x="140" y="810" as="sourcePoint" />
            <mxPoint x="198" y="1038" as="targetPoint" />
          </mxGeometry>
        </mxCell>
        <mxCell id="aoqUj16fe3TJWBXTC9W_-48" style="edgeStyle=orthogonalEdgeStyle;rounded=0;orthogonalLoop=1;jettySize=auto;html=1;exitX=0.75;exitY=1;exitDx=0;exitDy=0;exitPerimeter=0;entryX=0;entryY=0;entryDx=55;entryDy=14;entryPerimeter=0;endArrow=block;endFill=0;dashed=1;" edge="1" parent="1" source="aoqUj16fe3TJWBXTC9W_-8" target="aoqUj16fe3TJWBXTC9W_-11">
          <mxGeometry relative="1" as="geometry">
            <mxPoint x="230" y="540" as="sourcePoint" />
            <mxPoint x="288" y="768" as="targetPoint" />
          </mxGeometry>
        </mxCell>
        <mxCell id="aoqUj16fe3TJWBXTC9W_-51" style="edgeStyle=orthogonalEdgeStyle;rounded=0;orthogonalLoop=1;jettySize=auto;html=1;exitX=0.5;exitY=1;exitDx=0;exitDy=0;exitPerimeter=0;entryX=0;entryY=0;entryDx=0;entryDy=20;entryPerimeter=0;endArrow=block;endFill=0;dashed=1;" edge="1" parent="1" source="aoqUj16fe3TJWBXTC9W_-17" target="aoqUj16fe3TJWBXTC9W_-31">
          <mxGeometry relative="1" as="geometry">
            <mxPoint x="400" y="230" as="sourcePoint" />
            <mxPoint x="433.6125000000002" y="380.1500000000001" as="targetPoint" />
            <Array as="points">
              <mxPoint x="434" y="150" />
              <mxPoint x="434" y="280" />
              <mxPoint x="530" y="280" />
            </Array>
          </mxGeometry>
        </mxCell>
        <mxCell id="aoqUj16fe3TJWBXTC9W_-53" style="edgeStyle=orthogonalEdgeStyle;rounded=0;orthogonalLoop=1;jettySize=auto;html=1;exitX=0.75;exitY=1;exitDx=0;exitDy=0;exitPerimeter=0;entryX=0;entryY=0;entryDx=55;entryDy=14;entryPerimeter=0;endArrow=block;endFill=0;dashed=1;" edge="1" parent="1" source="aoqUj16fe3TJWBXTC9W_-31" target="aoqUj16fe3TJWBXTC9W_-43">
          <mxGeometry relative="1" as="geometry">
            <mxPoint x="580" y="510" as="sourcePoint" />
            <mxPoint x="638" y="738" as="targetPoint" />
          </mxGeometry>
        </mxCell>
        <mxCell id="aoqUj16fe3TJWBXTC9W_-54" style="edgeStyle=orthogonalEdgeStyle;rounded=0;orthogonalLoop=1;jettySize=auto;html=1;exitX=0;exitY=0;exitDx=120;exitDy=41;exitPerimeter=0;entryX=0;entryY=0;entryDx=0;entryDy=23;entryPerimeter=0;endArrow=block;endFill=0;dashed=1;" edge="1" parent="1" source="aoqUj16fe3TJWBXTC9W_-8" target="aoqUj16fe3TJWBXTC9W_-42">
          <mxGeometry relative="1" as="geometry">
            <mxPoint x="260" y="350" as="sourcePoint" />
            <mxPoint x="318" y="578" as="targetPoint" />
          </mxGeometry>
        </mxCell>
        <mxCell id="aoqUj16fe3TJWBXTC9W_-55" style="edgeStyle=orthogonalEdgeStyle;rounded=0;orthogonalLoop=1;jettySize=auto;html=1;exitX=0;exitY=0;exitDx=0;exitDy=50;exitPerimeter=0;entryX=0;entryY=0;entryDx=70;entryDy=23;entryPerimeter=0;endArrow=block;endFill=0;dashed=1;" edge="1" parent="1" source="aoqUj16fe3TJWBXTC9W_-31" target="aoqUj16fe3TJWBXTC9W_-42">
          <mxGeometry relative="1" as="geometry">
            <mxPoint x="510" y="520" as="sourcePoint" />
            <mxPoint x="568" y="748" as="targetPoint" />
            <Array as="points">
              <mxPoint x="490" y="415" />
              <mxPoint x="490" y="673" />
            </Array>
          </mxGeometry>
        </mxCell>
        <mxCell id="aoqUj16fe3TJWBXTC9W_-57" style="edgeStyle=orthogonalEdgeStyle;rounded=0;orthogonalLoop=1;jettySize=auto;html=1;exitX=0.25;exitY=1;exitDx=0;exitDy=0;exitPerimeter=0;entryX=0;entryY=0;entryDx=120;entryDy=14;entryPerimeter=0;endArrow=block;endFill=0;dashed=1;" edge="1" parent="1" source="aoqUj16fe3TJWBXTC9W_-17" target="aoqUj16fe3TJWBXTC9W_-8">
          <mxGeometry relative="1" as="geometry">
            <mxPoint x="380" y="220" as="sourcePoint" />
            <mxPoint x="438" y="448" as="targetPoint" />
            <Array as="points">
              <mxPoint x="418" y="260" />
              <mxPoint x="320" y="260" />
              <mxPoint x="320" y="330" />
              <mxPoint x="220" y="330" />
            </Array>
          </mxGeometry>
        </mxCell>
      </root>
    </mxGraphModel>
  </diagram>
</mxfile>
